<?xml version="1.0" encoding="UTF-8" standalone="no"?>
<svg
   width="118.91642mm"
   height="118.91642mm"
   viewBox="0 0 118.91642 118.91642"
   version="1.1"
   id="svg8"
   xmlns="http://www.w3.org/2000/svg"
   xmlns:svg="http://www.w3.org/2000/svg"
   xmlns:rdf="http://www.w3.org/1999/02/22-rdf-syntax-ns#"
   xmlns:cc="http://creativecommons.org/ns#"
   xmlns:dc="http://purl.org/dc/elements/1.1/">
  <defs
     id="defs2" />
  <metadata
     id="metadata5">
    <rdf:RDF>
      <cc:Work
         rdf:about="">
        <dc:format>image/svg+xml</dc:format>
        <dc:type
           rdf:resource="http://purl.org/dc/dcmitype/StillImage" />
      </cc:Work>
    </rdf:RDF>
  </metadata>
  <g
     id="layer1"
     transform="translate(-45.541677,-89.041862)">
    <path
       id="rect927"
       style="fill:#000000;fill-opacity:0.25098;stroke-width:5.2806;stroke-linecap:round;stroke-linejoin:round;stroke-opacity:0.25;paint-order:stroke markers fill"
       d="m 70.108134,105.34209 c -2.111139,0 -4.222007,0.80889 -5.839671,2.42656 -3.235328,3.23533 -3.235328,8.44454 0,11.67986 l 29.051735,29.05174 -29.051735,29.05173 c -3.235328,3.23533 -3.235328,8.44454 0,11.67987 3.235328,3.23533 8.444537,3.23533 11.679864,0 l 29.051733,-29.05174 29.05121,29.05174 c 3.23533,3.23533 8.44506,3.23533 11.68039,0 3.23533,-3.23533 3.23533,-8.44506 0,-11.68039 l -29.05173,-29.05121 29.05173,-29.05174 c 3.23533,-3.23532 3.23533,-8.44453 0,-11.67986 -3.23533,-3.23533 -8.44453,-3.23533 -11.67986,0 l -29.05174,29.05173 -29.051733,-29.05173 c -1.617662,-1.61767 -3.729054,-2.42656 -5.840193,-2.42656 z" />
  </g>
</svg>
