<?xml version="1.0" encoding="UTF-8" standalone="no"?>
<svg
   xmlns:dc="http://purl.org/dc/elements/1.1/"
   xmlns:cc="http://creativecommons.org/ns#"
   xmlns:rdf="http://www.w3.org/1999/02/22-rdf-syntax-ns#"
   xmlns:svg="http://www.w3.org/2000/svg"
   xmlns="http://www.w3.org/2000/svg"
   xmlns:sodipodi="http://sodipodi.sourceforge.net/DTD/sodipodi-0.dtd"
   xmlns:inkscape="http://www.inkscape.org/namespaces/inkscape"
   width="33.623882mm"
   height="33.623363mm"
   viewBox="0 0 33.623882 33.623363"
   version="1.1"
   id="svg904"
   inkscape:version="1.0.1 (3bc2e813f5, 2020-09-07)"
   sodipodi:docname="info.svg">
  <defs
     id="defs898" />
  <sodipodi:namedview
     id="base"
     pagecolor="#ffffff"
     bordercolor="#666666"
     borderopacity="1.0"
     inkscape:pageopacity="0.0"
     inkscape:pageshadow="2"
     inkscape:zoom="2.8"
     inkscape:cx="144.646"
     inkscape:cy="138.03927"
     inkscape:document-units="mm"
     inkscape:current-layer="layer1"
     inkscape:document-rotation="0"
     showgrid="false"
     fit-margin-top="5"
     lock-margins="true"
     fit-margin-left="5"
     fit-margin-right="5"
     fit-margin-bottom="5"
     inkscape:window-width="1920"
     inkscape:window-height="1017"
     inkscape:window-x="-8"
     inkscape:window-y="-8"
     inkscape:window-maximized="1" />
  <metadata
     id="metadata901">
    <rdf:RDF>
      <cc:Work
         rdf:about="">
        <dc:format>image/svg+xml</dc:format>
        <dc:type
           rdf:resource="http://purl.org/dc/dcmitype/StillImage" />
        <dc:title></dc:title>
      </cc:Work>
    </rdf:RDF>
  </metadata>
  <g
     inkscape:label="Livello 1"
     inkscape:groupmode="layer"
     id="layer1"
     transform="translate(-42.667375,-121.74058)">
    <path
       id="path1480"
       style="fill:#000000;fill-opacity:0.5;stroke-width:18.8976;stroke-linecap:round;stroke-linejoin:round;paint-order:markers fill stroke"
       d="m 224.80469,479.01953 a 44.642857,44.642857 0 0 0 -44.64453,44.64258 44.642857,44.642857 0 0 0 44.64453,44.64258 44.642857,44.642857 0 0 0 44.64258,-44.64258 44.642857,44.642857 0 0 0 -44.64258,-44.64258 z m 0,5.74024 c 2.34655,0 4.31645,0.79687 5.91211,2.39257 1.68951,1.50177 2.53515,3.56715 2.53515,6.19532 0,2.62817 -0.84564,4.74023 -2.53515,6.33593 -1.59566,1.50177 -3.56556,2.25196 -5.91211,2.25196 -2.34656,0 -4.36517,-0.75019 -6.05469,-2.25196 -1.59566,-1.5957 -2.39453,-3.70776 -2.39453,-6.33593 0,-2.62817 0.79887,-4.69355 2.39453,-6.19532 1.68952,-1.5957 3.70813,-2.39257 6.05469,-2.39257 z m -6.47657,24.8789 h 13.09376 v 52.92774 h -13.09376 z"
       transform="scale(0.26458333)"
       inkscape:export-xdpi="17.200001"
       inkscape:export-ydpi="17.200001"
       inkscape:export-filename="C:\Users\fdibene\Desktop\info.png" />
    <g
       aria-label="i"
       id="text1478"
       style="font-size:23.9676px;line-height:125%;font-family:Calibri;-inkscape-font-specification:Calibri;text-align:center;letter-spacing:0px;word-spacing:0px;text-anchor:middle;fill:none;stroke:none;stroke-width:1.28398px;stroke-linecap:butt;stroke-linejoin:miter;stroke-opacity:1"
       transform="matrix(1.5542462,0,0,1.5542462,-33.259911,-83.587001)" />
  </g>
</svg>
