<?xml version="1.0" encoding="UTF-8" standalone="no"?>
<svg
   width="250mm"
   height="250mm"
   viewBox="0 0 250 250"
   version="1.1"
   id="svg8"
   sodipodi:docname="pin.svg"
   inkscape:export-filename="pin_on.png"
   inkscape:export-xdpi="1.6256"
   inkscape:export-ydpi="1.6256"
   inkscape:version="1.2.1 (9c6d41e410, 2022-07-14)"
   xmlns:inkscape="http://www.inkscape.org/namespaces/inkscape"
   xmlns:sodipodi="http://sodipodi.sourceforge.net/DTD/sodipodi-0.dtd"
   xmlns="http://www.w3.org/2000/svg"
   xmlns:svg="http://www.w3.org/2000/svg"
   xmlns:rdf="http://www.w3.org/1999/02/22-rdf-syntax-ns#"
   xmlns:cc="http://creativecommons.org/ns#"
   xmlns:dc="http://purl.org/dc/elements/1.1/">
  <sodipodi:namedview
     id="namedview158"
     pagecolor="#ffffff"
     bordercolor="#666666"
     borderopacity="1.0"
     inkscape:showpageshadow="2"
     inkscape:pageopacity="0.0"
     inkscape:pagecheckerboard="0"
     inkscape:deskcolor="#d1d1d1"
     inkscape:document-units="mm"
     showgrid="false"
     inkscape:zoom="0.34028867"
     inkscape:cx="88.160443"
     inkscape:cy="448.14892"
     inkscape:window-width="1920"
     inkscape:window-height="1009"
     inkscape:window-x="-8"
     inkscape:window-y="-8"
     inkscape:window-maximized="1"
     inkscape:current-layer="svg8" />
  <defs
     id="defs2" />
  <metadata
     id="metadata5">
    <rdf:RDF>
      <cc:Work
         rdf:about="">
        <dc:format>image/svg+xml</dc:format>
        <dc:type
           rdf:resource="http://purl.org/dc/dcmitype/StillImage" />
      </cc:Work>
    </rdf:RDF>
  </metadata>
  <path
     id="rect728"
     style="fill:#000000;fill-opacity:0.25098;stroke-width:1.90021;stroke-linecap:round;stroke-linejoin:round;stroke-opacity:0;paint-order:stroke markers fill"
     d="M 81.520466,22.332458 A 19.430448,19.430448 0 0 0 62.089594,41.76262 19.430448,19.430448 0 0 0 81.520462,61.192781 19.430448,19.430448 0 0 0 84.407751,60.976465 l 0.0042,0.05748 a 17.738244,17.738244 0 0 1 0.956046,-0.03546 17.738244,17.738244 0 0 1 17.737923,17.738639 17.738244,17.738244 0 0 1 -16.052081,17.64786 l 0.007,0.09 a 13.757604,13.757604 0 0 0 -11.71365,13.604506 13.757604,13.757604 0 0 0 13.757714,13.75772 c 7.903452,0 13.086757,-2e-5 23.710367,0 l 1e-5,54.44501 12.18534,49.38534 12.18464,-49.38534 -1e-5,-54.44501 c 7.85324,0 23.96809,1e-5 23.71038,0 a 13.757604,13.757604 0 0 0 13.75772,-13.75772 13.757604,13.757604 0 0 0 -11.71299,-13.604506 l 0.003,-0.044 a 17.738244,17.738244 0 0 1 -16.55919,-17.69395 17.738244,17.738244 0 0 1 17.73794,-17.738647 17.738244,17.738244 0 0 1 1.46385,0.0617 l 0.007,-0.08365 a 19.430448,19.430448 0 0 0 2.88729,0.216311 19.430448,19.430448 0 0 0 19.43016,-19.430156 19.430448,19.430448 0 0 0 -19.43016,-19.430156 z" />
</svg>
