<?xml version="1.0" encoding="UTF-8" standalone="no"?>
<svg
   xmlns:dc="http://purl.org/dc/elements/1.1/"
   xmlns:cc="http://creativecommons.org/ns#"
   xmlns:rdf="http://www.w3.org/1999/02/22-rdf-syntax-ns#"
   xmlns:svg="http://www.w3.org/2000/svg"
   xmlns="http://www.w3.org/2000/svg"
   width="116.68942mm"
   height="127.5985mm"
   viewBox="0 0 116.68942 127.5985"
   version="1.1"
   id="svg8">
  <defs
     id="defs2" />
  <metadata
     id="metadata5">
    <rdf:RDF>
      <cc:Work
         rdf:about="">
        <dc:format>image/svg+xml</dc:format>
        <dc:type
           rdf:resource="http://purl.org/dc/dcmitype/StillImage" />
        <dc:title></dc:title>
      </cc:Work>
    </rdf:RDF>
  </metadata>
  <g
     id="layer1"
     transform="translate(-53.140309,-68.499389)">
    <path
       id="rect844"
       style="fill:#000000;fill-opacity:0.25;stroke:none;stroke-width:18.8976;stroke-linecap:round;stroke-linejoin:round;paint-order:markers fill stroke"
       d="m 389.96094,277.79297 c -25.4546,0 -45.94727,22.07645 -45.94727,49.49805 0,0.71148 0.0218,1.41711 0.0488,2.12109 h -76.46875 c -26.49358,0 -48.75996,28.89548 -47.82227,65.51758 h 35.92383 v 45.49804 69.69922 162.63477 c 0,27.42161 22.07645,49.49805 49.49805,49.49805 H 537.5293 c 27.4216,0 49.49609,-22.07644 49.49609,-49.49805 V 510.12695 440.42773 394.92969 h 35.95313 c 0,-36.6221 -21.32869,-65.51758 -47.82227,-65.51758 h -76.4707 c 0.0265,-0.70398 0.0488,-1.40961 0.0488,-2.12109 0,-27.4216 -20.49268,-49.49805 -45.94727,-49.49805 z m 8.97461,28.28515 h 44.87695 c 14.26001,0 26.33694,9.70007 30.88477,23.33399 H 368.05078 c 4.54779,-13.63392 16.6248,-23.33399 30.88477,-23.33399 z m -68.57032,160.38477 c 10.63286,0 19.19336,8.56049 19.19336,19.19336 v 172.18164 c 0,10.63287 -8.5605,19.19141 -19.19336,19.19141 -10.63287,0 -19.19335,-8.55854 -19.19335,-19.19141 V 485.65625 c 0,-10.63287 8.56048,-19.19336 19.19335,-19.19336 z m 90.9961,0 c 10.63283,0 19.1914,8.56049 19.1914,19.19336 v 172.18164 c 0,10.63287 -8.55857,19.19141 -19.1914,19.19141 -10.63287,0 -19.19336,-8.55854 -19.19336,-19.19141 V 485.65625 c 0,-10.63287 8.56049,-19.19336 19.19336,-19.19336 z m 90.99414,0 c 10.63283,0 19.19336,8.56049 19.19336,19.19336 v 172.18164 c 0,10.63287 -8.56053,19.19141 -19.19336,19.19141 -10.63287,0 -19.19336,-8.55854 -19.19336,-19.19141 V 485.65625 c 0,-10.63287 8.56049,-19.19336 19.19336,-19.19336 z"
       transform="scale(0.26458333)" />
  </g>
</svg>
